# xmcd
#
# Track frame offsets:
#	150
#	16362
#	32375
#	57275
#
# Disc length: 1181 seconds
#
# Revision: 1
# Processed by: cddbd v1.5.1PL0 Copyright (c) Steve Scherf et al.
# Submitted via: audiograbber 1.83.01
#
DISCID=25049b04
DTITLE=Fontana feat. Darryl D'Bonneau - Pow Pow Pow
DYEAR=2001
DGENRE=House
TTITLE0=Pow Pow Pow (J.K.'s Bite! Radio Edit)
TTITLE1=Pow Pow Pow (ATFC Radio Edit)
TTITLE2=Pow Pow Pow (ATFC Party-Arty Dub)
TTITLE3=Pow Pow Pow (Lenny's Main Vocal Mix)
EXTD=
EXTT0=
EXTT1=
EXTT2=
EXTT3=
PLAYORDER=
